<svg xmlns="http://www.w3.org/2000/svg" width="1122" height="288" viewBox="0 0 1122 288" fill="none">
<g filter="url(#filter0_d_624_134)">
<path fill-rule="evenodd" clip-rule="evenodd" d="M26.8039 56.9834H173.352V107.36H52.9989V119.505H137.355L167.1 147.5V196.995L145.558 223.025H0.277222V174.211H118.286V166.756H34.8643L0.277222 137.357V83.51L26.8039 56.9834ZM31.1612 67.5031L10.7969 87.8674V132.492L38.7311 156.236H128.806V184.73H10.7969V212.505H140.609L156.58 193.207V152.046L133.183 130.024H42.4792V96.8407H162.833V67.5031H31.1612ZM176.9 56.9834H225.714V124.194H286.312V56.9834H332.782V131.632L319.105 145.309V215.255L250.572 283.788H191.749V239.858H226.872L273.808 192.922V175.352H218.275L176.9 133.977V56.9834ZM187.42 67.5031V129.619L222.633 164.833H284.328V197.28L231.229 250.378H202.268V273.268H246.215L308.585 210.897V140.951L322.262 127.275V67.5031H296.832V134.713H215.194V67.5031H187.42ZM336.329 56.9834H462.558L495.728 90.1529V223.025H442.615V107.36H385.925V223.025H336.329V56.9834ZM346.849 67.5031V212.505H375.405V96.8407H453.135V212.505H485.208V94.5103L458.201 67.5031H346.849ZM1077.21 56.9834H1121.72V145.309L1106.48 160.548V216.036L1035.41 287.109H974.828V240.249H1009.56L1056.89 192.922V169.1H997.447L958.416 130.069V57.7649H1012.7V122.631H1077.21V56.9834ZM1087.73 67.5031V133.15H1002.18V68.2845H968.936V125.712L1001.8 158.58H1067.41V197.28L1013.92 250.769H985.348V276.589H1031.05L1095.96 211.679V156.191L1111.2 140.951V67.5031H1087.73ZM506.7 57.7649H614.954L640.699 83.51V130.069L627.638 143.13L640.699 156.191V197.28L614.954 223.025H500.448V178.9H591.885V163.63H534.053V119.505H591.885V107.36H506.7V57.7649ZM517.219 68.2845V96.8407H602.405V130.024H544.572V153.11H602.405V189.42H510.967V212.505H610.596L630.179 192.922V160.548L612.761 143.13L630.179 125.712V87.8673L610.596 68.2845H517.219ZM641.902 57.7649H773.602L799.347 83.51V141.01L775.847 164.51L814.856 223.025H761.21L719.79 175.352H690.716V223.025H641.902V57.7649ZM652.422 68.2845V212.505H680.196V164.833H724.585L766.006 212.505H795.2L762.31 163.17L788.827 136.653V87.8673L769.244 68.2845H652.422ZM825.513 57.7649H954.087V107.36H849.364V172.648H905.273V169.1H867.76V119.505H954.087V223.025H822.99L799.768 188.048V83.51L825.513 57.7649ZM829.871 68.2845L810.288 87.8673V184.874L828.633 212.505H943.567V130.024H878.28V158.58H915.793V183.167H838.844V96.8407H943.567V68.2845H829.871ZM680.196 96.8407H756.217V133.15H680.196V96.8407ZM690.716 107.36V122.631H745.697V107.36H690.716Z" fill="black"/>
<path fill-rule="evenodd" clip-rule="evenodd" d="M26.8039 56.9834H173.352V107.36H52.9989V119.505H137.355L167.1 147.5V196.995L145.558 223.025H0.277222V174.211H118.286V166.756H34.8643L0.277222 137.357V83.51L26.8039 56.9834ZM31.1612 67.5031L10.7969 87.8674V132.492L38.7311 156.236H128.806V184.73H10.7969V212.505H140.609L156.58 193.207V152.046L133.183 130.024H42.4792V96.8407H162.833V67.5031H31.1612ZM176.9 56.9834H225.714V124.194H286.312V56.9834H332.782V131.632L319.105 145.309V215.255L250.572 283.788H191.749V239.858H226.872L273.808 192.922V175.352H218.275L176.9 133.977V56.9834ZM187.42 67.5031V129.619L222.633 164.833H284.328V197.28L231.229 250.378H202.268V273.268H246.215L308.585 210.897V140.951L322.262 127.275V67.5031H296.832V134.713H215.194V67.5031H187.42ZM336.329 56.9834H462.558L495.728 90.1529V223.025H442.615V107.36H385.925V223.025H336.329V56.9834ZM346.849 67.5031V212.505H375.405V96.8407H453.135V212.505H485.208V94.5103L458.201 67.5031H346.849ZM1077.21 56.9834H1121.72V145.309L1106.48 160.548V216.036L1035.41 287.109H974.828V240.249H1009.56L1056.89 192.922V169.1H997.447L958.416 130.069V57.7649H1012.7V122.631H1077.21V56.9834ZM1087.73 67.5031V133.15H1002.18V68.2845H968.936V125.712L1001.8 158.58H1067.41V197.28L1013.92 250.769H985.348V276.589H1031.05L1095.96 211.679V156.191L1111.2 140.951V67.5031H1087.73ZM506.7 57.7649H614.954L640.699 83.51V130.069L627.638 143.13L640.699 156.191V197.28L614.954 223.025H500.448V178.9H591.885V163.63H534.053V119.505H591.885V107.36H506.7V57.7649ZM517.219 68.2845V96.8407H602.405V130.024H544.572V153.11H602.405V189.42H510.967V212.505H610.596L630.179 192.922V160.548L612.761 143.13L630.179 125.712V87.8673L610.596 68.2845H517.219ZM641.902 57.7649H773.602L799.347 83.51V141.01L775.847 164.51L814.856 223.025H761.21L719.79 175.352H690.716V223.025H641.902V57.7649ZM652.422 68.2845V212.505H680.196V164.833H724.585L766.006 212.505H795.2L762.31 163.17L788.827 136.653V87.8673L769.244 68.2845H652.422ZM825.513 57.7649H954.087V107.36H849.364V172.648H905.273V169.1H867.76V119.505H954.087V223.025H822.99L799.768 188.048V83.51L825.513 57.7649ZM829.871 68.2845L810.288 87.8673V184.874L828.633 212.505H943.567V130.024H878.28V158.58H915.793V183.167H838.844V96.8407H943.567V68.2845H829.871ZM680.196 96.8407H756.217V133.15H680.196V96.8407ZM690.716 107.36V122.631H745.697V107.36H690.716Z" fill="#FBD005"/>
<path d="M168.093 102.101V62.2432H28.9825L5.53706 85.6887V134.924L36.7977 161.496H123.546V179.471H5.53706V217.765H143.084L161.84 195.101V149.773L135.269 124.764H47.739V102.101H168.093Z" fill="white"/>
<path d="M220.454 62.2432H182.16V131.798L220.454 170.092H279.068V195.101L229.051 245.118H197.009V278.528H248.393L313.845 213.076V143.13L327.522 129.454V62.2432H291.572V129.454H220.454V62.2432Z" fill="white"/>
<path d="M341.589 62.2432V217.765H380.665V102.101H447.875V217.765H490.468V92.3316L460.379 62.2432H341.589Z" fill="white"/>
<path d="M597.145 102.101H511.96V63.0247H612.775L635.439 85.6887V127.891L620.2 143.13L635.439 158.37V195.101L612.775 217.765H505.707V184.16H597.145V158.37H539.313V124.764H597.145V102.101Z" fill="white"/>
<path d="M805.028 186.461V85.6887L827.692 63.0247H948.827V102.101H844.104V177.908H910.533V163.84H873.02V124.764H948.827V217.765H825.807L805.028 186.461Z" fill="white"/>
<path d="M963.676 127.891V63.0247H1007.44V127.891H1082.47V62.2432H1116.46V143.13L1101.22 158.37V213.857L1033.23 281.849H980.088V245.509H1011.74L1062.15 195.101V163.84H999.626L963.676 127.891Z" fill="white"/>
<path fill-rule="evenodd" clip-rule="evenodd" d="M647.162 217.765H685.456V170.092H722.187L763.608 217.765H805.028L769.078 163.84L794.087 138.832V85.6887L771.423 63.0247H647.162V217.765ZM685.456 127.891V102.101H750.957V127.891H685.456Z" fill="white"/>
<path fill-rule="evenodd" clip-rule="evenodd" d="M27.8932 59.6133H170.722V104.73H50.3689V122.135H136.312L164.47 148.637V196.048L144.321 220.395H2.90714V176.841H120.916V164.126H35.831L2.90714 136.14V84.5993L27.8932 59.6133ZM30.0719 64.8732L8.16698 86.778V133.708L37.7644 158.866H126.176V182.101H8.16698V215.135H141.847L159.21 194.154V150.909L134.226 127.394H45.1091V99.4706H165.463V64.8732H30.0719ZM179.53 59.6133H223.084V126.824H288.942V59.6133H330.152V130.543L316.475 144.219V214.165L249.483 281.158H194.379V242.488H227.961L276.438 194.012V172.722H219.365L179.53 132.887V59.6133ZM184.79 64.8732V130.709L221.543 167.462H281.698V196.19L230.14 247.748H199.638V275.898H247.304L311.215 211.986V142.041L324.892 128.364V64.8732H294.202V132.083H217.824V64.8732H184.79ZM338.959 59.6133H461.469L493.098 91.2422V220.395H445.245V104.73H383.295V220.395H338.959V59.6133ZM344.219 64.8732V215.135H378.035V99.4706H450.505V215.135H487.838V93.4209L459.29 64.8732H344.219ZM1079.84 59.6133H1119.09V144.219L1103.85 159.459V214.947L1034.32 284.479H977.458V242.879H1010.65L1059.52 194.012V166.47H998.536L961.046 128.98V60.3948H1010.07V125.261H1079.84V59.6133ZM1085.1 64.8732V130.521H1004.81V65.6546H966.306V126.801L1000.71 161.21H1064.78V196.19L1012.83 248.139H982.718V279.219H1032.14L1098.59 212.768V157.28L1113.83 142.041V64.8732H1085.1ZM509.33 60.3948H613.865L638.069 84.5993V128.98L623.919 143.13L638.069 157.28V196.19L613.865 220.395H503.077V181.53H594.515V161H536.683V122.135H594.515V104.73H509.33V60.3948ZM514.589 65.6546V99.4706H599.775V127.394H541.943V155.74H599.775V186.79H508.337V215.135H611.686L632.809 194.012V159.459L616.48 143.13L632.809 126.801V86.778L611.686 65.6546H514.589ZM644.532 60.3948H772.512L796.717 84.5993V139.921L772.463 164.175L809.942 220.395H762.409L720.989 172.722H688.086V220.395H644.532V60.3948ZM649.792 65.6546V215.135H682.826V167.462H723.386L764.807 215.135H800.114L765.694 163.505L791.457 137.742V86.778L770.334 65.6546H649.792ZM826.603 60.3948H951.457V104.73H846.734V175.278H907.903V166.47H870.39V122.135H951.457V220.395H824.396L802.398 187.254V84.5993L826.603 60.3948ZM828.781 65.6546L807.658 86.778V185.667L827.218 215.135H946.197V127.394H875.65V161.21H913.163V180.537H841.474V99.4706H946.197V65.6546H828.781ZM682.826 99.4706H753.587V130.521H682.826V99.4706ZM688.086 104.73V125.261H748.327V104.73H688.086Z" fill="black"/>
</g>
<path d="M842.705 281.849L792.33 231.474H946.97V281.849H842.705Z" fill="#FBD007" stroke="black" stroke-width="2.62992"/>
<path fill-rule="evenodd" clip-rule="evenodd" d="M5.13877 21.9219L18.316 9.61836V8.52802L18.0831 8.3011H13.4486L13.2157 8.52802V12.0504H4.99316V5.58187L9.91405 0.660983H21.6176L26.5385 5.58187V12.6012L15.7611 22.5381H26.6841V30.1418H5.13877V21.9219ZM11.4705 24.5381V23.7736L24.5385 11.7249V6.4103L20.7892 2.66098H10.7425L6.99316 6.4103V10.0504H11.2157V7.68434L12.6353 6.3011H18.8963L20.316 7.68434V10.4872L7.13877 22.7908V28.1418H24.6841V24.5381H11.4705ZM41.5162 2.66098H46.94V19.6239H50.0341V23.264H46.94V28.1418H42.7175V23.264H30.3411V18.4955L41.5162 2.66098ZM40.7175 25.264H28.3411V17.8608L40.4798 0.660983H48.94V17.6239H52.0341V25.264H48.94V30.1418H40.7175V25.264ZM54.5968 0.151367H62.7101V8.31608L63.0122 8.01401H70.384L75.3777 13.0077V30.1418H67.2644V15.793L67.0163 15.5449H65.3299L62.7101 18.1899V30.1418H54.5968V0.151367ZM60.7101 17.367L64.4959 13.5449H67.8448L69.2644 14.9646V28.1418H73.3777V13.8361L69.5556 10.014H63.8406L60.7101 13.1445V2.15137H56.5968V28.1418H60.7101V17.367ZM79.5657 8.01401H87.3878V8.19721L87.5667 8.01401H95.4325V15.5449H90.1592L87.679 18.0747V30.1418H79.5657V8.01401ZM85.679 17.2578L89.3192 13.5449H93.4325V10.014H88.4091L85.3878 13.1081V10.014H81.5657V28.1418H85.679V17.2578ZM111.201 0.660983H119.423V11.6177H126.999V0.660983H135.221V30.1418H126.999V19.2578H119.423V30.1418H111.201V0.660983ZM117.423 17.2578H128.999V28.1418H133.221V2.66098H128.999V13.6177H117.423V2.66098H113.201V28.1418H117.423V17.2578ZM147.633 0.660983H154.443L165.098 30.1418H156.549L154.365 24.0992H147.672L145.488 30.1418H136.936L147.633 0.660983ZM146.268 22.0992H155.769L157.953 28.1418H162.249L153.039 2.66098H149.035L139.789 28.1418H144.084L146.268 22.0992ZM165.893 24.8569V5.94589L171.178 0.660983H184.775L189.987 5.87308V12.0504H181.764V9.03356L181.018 8.3011H175.009L174.116 9.17837V21.6244L175.009 22.5017H181.018L181.764 21.7692V18.7523H189.987V24.9297L184.775 30.1418H171.178L165.893 24.8569ZM181.835 24.5017H174.191L172.116 22.4632V8.33956L174.191 6.3011H181.835L183.764 8.19396V10.0504H187.987V6.70151L183.946 2.66098H172.007L167.893 6.77431V24.0284L172.007 28.1418H183.946L187.987 24.1012V20.7523H183.764V22.6088L181.835 24.5017ZM193.466 0.660983H201.688V11.6177H203.081L209.378 0.660983H218.709L210.178 15.3264L218.127 28.0077L228.05 0.660983H234.859L245.515 30.1418H236.966L234.782 24.0992H228.089L225.905 30.1418H209.937L203.13 19.2578H201.688V30.1418H193.466V0.660983ZM199.688 17.2578H204.238L211.045 28.1418H215.85L207.842 15.365L215.232 2.66098H210.536L204.238 13.6177H199.688V2.66098H195.466V28.1418H199.688V17.2578ZM226.685 22.0992H236.186L238.37 28.1418H242.665L233.456 2.66098H229.452L220.206 28.1418H224.501L226.685 22.0992ZM242.117 8.2647V0.660983H265.628V8.2647H257.983V30.1418H249.761V8.2647H242.117ZM251.761 6.2647V28.1418H255.983V6.2647H263.628V2.66098H244.117V6.2647H251.761ZM268.55 0.660983H276.773V11.6177H284.348V0.660983H292.571V30.1418H284.348V19.2578H276.773V30.1418H268.55V0.660983ZM274.773 17.2578H286.348V28.1418H290.571V2.66098H286.348V13.6177H274.773V2.66098H270.55V28.1418H274.773V17.2578ZM296.959 24.8569V5.94589L302.244 0.660983H316.495L321.78 5.94589V24.8569L316.495 30.1418H302.244L296.959 24.8569ZM298.959 24.0284V6.77431L303.072 2.66098H315.667L319.78 6.77431V24.0284L315.667 28.1418H303.072L298.959 24.0284ZM326.166 0.660983H333.112L342.11 14.5402V0.660983H350.151V30.1418H343.206L334.207 16.2881V30.1418H326.166V0.660983ZM332.207 9.65H332.28L344.292 28.1418H348.151V2.66098H344.11V21.1892H344.037L332.025 2.66098H328.166V28.1418H332.207V9.65ZM42.6811 7.13832L34.4544 18.8959V19.7331H42.8631V7.13832H42.6811ZM40.8631 13.2252L37.7089 17.7331H40.8631V13.2252ZM150.964 7.79354H151.037L154.786 18.5683H147.288L150.964 7.79354ZM151.019 13.8268L150.083 16.5683H151.973L151.019 13.8268ZM231.381 7.79354H231.454L235.203 18.5683H227.704L231.381 7.79354ZM231.435 13.8268L230.5 16.5683H232.389L231.435 13.8268ZM313.558 21.6244V9.17837L312.665 8.3011H306.074L305.181 9.17837V21.6244L306.074 22.5017H312.665L313.558 21.6244ZM313.483 24.5017L315.558 22.4632V8.33956L313.483 6.3011H305.256L303.181 8.33956V22.4632L305.256 24.5017H313.483Z" fill="#FBD005"/>
<path d="M7.13877 22.7908L20.316 10.4872V7.68434L18.8963 6.3011H12.6353L11.2157 7.68434V10.0504H6.99316V6.4103L10.7425 2.66098H20.7892L24.5385 6.4103V11.7249L11.4705 23.7736V24.5381H24.6841V28.1418H7.13877V22.7908Z" fill="white"/>
<path d="M42.7175 23.264H30.3411V18.4955L41.5162 2.66098H46.94V19.6239H50.0341V23.264H46.94V28.1418H42.7175V23.264ZM42.8631 19.7331V7.13832H42.6811L34.4544 18.8959V19.7331H42.8631Z" fill="white"/>
<path d="M56.5968 2.15137H60.7101V13.1445L63.8406 10.014H69.5556L73.3777 13.8361V28.1418H69.2644V14.9646L67.8448 13.5449H64.4959L60.7101 17.367V28.1418H56.5968V2.15137Z" fill="white"/>
<path d="M81.5657 10.014H85.3878V13.1081L88.4091 10.014H93.4325V13.5449H89.3192L85.679 17.2578V28.1418H81.5657V10.014Z" fill="white"/>
<path d="M113.201 2.66098H117.423V13.6177H128.999V2.66098H133.221V28.1418H128.999V17.2578H117.423V28.1418H113.201V2.66098Z" fill="white"/>
<path d="M149.035 2.66098H153.039L162.249 28.1418H157.953L155.769 22.0992H146.268L144.084 28.1418H139.789L149.035 2.66098ZM154.786 18.5683L151.037 7.79354H150.964L147.288 18.5683H154.786Z" fill="white"/>
<path d="M167.893 24.0284V6.77431L172.007 2.66098H183.946L187.987 6.70151V10.0504H183.764V8.19396L181.835 6.3011H174.191L172.116 8.33956V22.4632L174.191 24.5017H181.835L183.764 22.6088V20.7523H187.987V24.1012L183.946 28.1418H172.007L167.893 24.0284Z" fill="white"/>
<path d="M195.466 2.66098H199.688V13.6177H204.238L210.536 2.66098H215.232L207.842 15.365L215.85 28.1418H211.045L204.238 17.2578H199.688V28.1418H195.466V2.66098Z" fill="white"/>
<path d="M229.452 2.66098H233.456L242.665 28.1418H238.37L236.186 22.0992H226.685L224.501 28.1418H220.206L229.452 2.66098ZM235.203 18.5683L231.454 7.79354H231.381L227.704 18.5683H235.203Z" fill="white"/>
<path d="M251.761 6.2647H244.117V2.66098H263.628V6.2647H255.983V28.1418H251.761V6.2647Z" fill="white"/>
<path d="M270.55 2.66098H274.773V13.6177H286.348V2.66098H290.571V28.1418H286.348V17.2578H274.773V28.1418H270.55V2.66098Z" fill="white"/>
<path d="M298.959 24.0284V6.77431L303.072 2.66098H315.667L319.78 6.77431V24.0284L315.667 28.1418H303.072L298.959 24.0284ZM313.483 24.5017L315.558 22.4632V8.33956L313.483 6.3011H305.256L303.181 8.33956V22.4632L305.256 24.5017H313.483Z" fill="white"/>
<path d="M328.166 2.66098H332.025L344.037 21.1892H344.11V2.66098H348.151V28.1418H344.292L332.28 9.65H332.207V28.1418H328.166V2.66098Z" fill="white"/>
<path fill-rule="evenodd" clip-rule="evenodd" d="M6.13877 22.3564L19.316 10.0528V8.10618L18.4897 7.3011H13.042L12.2157 8.10618V11.0504H5.99316V5.99609L10.3283 1.66098H21.2034L25.5385 5.99609V12.163L13.2013 23.5381H25.6841V29.1418H6.13877V22.3564ZM11.4705 23.7736L24.5385 11.7249V6.4103L20.7892 2.66098H10.7425L6.99316 6.4103V10.0504H11.2157V7.68434L12.6353 6.3011H18.8963L20.316 7.68434V10.4872L7.13877 22.7908V28.1418H24.6841V24.5381H11.4705V23.7736ZM29.3411 24.264V18.1781L40.998 1.66098H47.94V18.6239H51.0341V24.264H47.94V29.1418H41.7175V24.264H29.3411ZM42.7175 23.264V28.1418H46.94V23.264H50.0341V19.6239H46.94V2.66098H41.5162L30.3411 18.4955V23.264H42.7175ZM55.5968 1.15137H61.7101V10.7303L63.4264 9.01401H69.9698L74.3777 13.4219V29.1418H68.2644V15.3788L67.4305 14.5449H64.9129L61.7101 17.7785V29.1418H55.5968V1.15137ZM60.7101 17.367L64.4959 13.5449H67.8448L69.2644 14.9646V28.1418H73.3777V13.8361L69.5556 10.014H63.8406L60.7101 13.1445V2.15137H56.5968V28.1418H60.7101V17.367ZM80.5657 9.01401H86.3878V10.6527L87.9879 9.01401H94.4325V14.5449H89.7392L86.679 17.6663V29.1418H80.5657V9.01401ZM85.679 17.2578L89.3192 13.5449H93.4325V10.014H88.4091L85.3878 13.1081V10.014H81.5657V28.1418H85.679V17.2578ZM112.201 1.66098H118.423V12.6177H127.999V1.66098H134.221V29.1418H127.999V18.2578H118.423V29.1418H112.201V1.66098ZM117.423 17.2578H128.999V28.1418H133.221V2.66098H128.999V13.6177H117.423V2.66098H113.201V28.1418H117.423V17.2578ZM148.334 1.66098H153.741L163.673 29.1418H157.251L155.067 23.0992H146.97L144.786 29.1418H138.362L148.334 1.66098ZM146.268 22.0992H155.769L157.953 28.1418H162.249L153.039 2.66098H149.035L139.789 28.1418H144.084L146.268 22.0992ZM166.893 24.4427V6.3601L171.592 1.66098H184.36L188.987 6.2873V11.0504H182.764V8.61377L181.426 7.3011H174.6L173.116 8.75896V22.0438L174.6 23.5017H181.426L182.764 22.189V19.7523H188.987V24.5155L184.36 29.1418H171.592L166.893 24.4427ZM183.764 22.6088L181.835 24.5017H174.191L172.116 22.4632V8.33956L174.191 6.3011H181.835L183.764 8.19396V10.0504H187.987V6.70151L183.946 2.66098H172.007L167.893 6.77431V24.0284L172.007 28.1418H183.946L187.987 24.1012V20.7523H183.764V22.6088ZM194.466 1.66098H200.688V12.6177H203.66L209.957 1.66098H216.97L209.01 15.3457L217.657 29.1418H210.491L203.684 18.2578H200.688V29.1418H194.466V1.66098ZM199.688 17.2578H204.238L211.045 28.1418H215.85L207.842 15.365L215.232 2.66098H210.536L204.238 13.6177H199.688V2.66098H195.466V28.1418H199.688V17.2578ZM228.751 1.66098H234.158L244.09 29.1418H237.668L235.484 23.0992H227.387L225.203 29.1418H218.779L228.751 1.66098ZM226.685 22.0992H236.186L238.37 28.1418H242.665L233.456 2.66098H229.452L220.206 28.1418H224.501L226.685 22.0992ZM243.117 7.2647V1.66098H264.628V7.2647H256.983V29.1418H250.761V7.2647H243.117ZM251.761 6.2647V28.1418H255.983V6.2647H263.628V2.66098H244.117V6.2647H251.761ZM269.55 1.66098H275.773V12.6177H285.348V1.66098H291.571V29.1418H285.348V18.2578H275.773V29.1418H269.55V1.66098ZM274.773 17.2578H286.348V28.1418H290.571V2.66098H286.348V13.6177H274.773V2.66098H270.55V28.1418H274.773V17.2578ZM297.959 24.4427V6.3601L302.658 1.66098H316.081L320.78 6.3601V24.4427L316.081 29.1418H302.658L297.959 24.4427ZM327.166 1.66098H332.568L343.11 17.9208V1.66098H349.151V29.1418H343.749L333.207 12.913V29.1418H327.166V1.66098ZM332.207 9.65H332.28L344.292 28.1418H348.151V2.66098H344.11V21.1892H344.037L332.025 2.66098H328.166V28.1418H332.207V9.65ZM42.6811 7.13832L34.4544 18.8959V19.7331H42.8631V7.13832H42.6811ZM41.8631 10.0517L35.7888 18.7331H41.8631V10.0517ZM150.964 7.79354H151.037L154.786 18.5683H147.288L150.964 7.79354ZM151.01 10.7574L148.686 17.5683H153.38L151.01 10.7574ZM231.381 7.79354H231.454L235.203 18.5683H227.704L231.381 7.79354ZM231.426 10.7574L229.102 17.5683H233.796L231.426 10.7574ZM314.558 22.0438L313.074 23.5017H305.665L304.181 22.0438V8.75898L305.665 7.3011H313.074L314.558 8.75898V22.0438ZM315.558 8.33956L313.483 6.3011H305.256L303.181 8.33956V22.4632L305.256 24.5017H313.483L315.558 22.4632V8.33956ZM298.959 24.0284V6.77431L303.072 2.66098H315.667L319.78 6.77431V24.0284L315.667 28.1418H303.072L298.959 24.0284Z" fill="black"/>
<defs>
<filter id="filter0_d_624_134" x="0.277222" y="56.9834" width="1121.44" height="230.125" filterUnits="userSpaceOnUse" color-interpolation-filters="sRGB">
<feFlood flood-opacity="0" result="BackgroundImageFix"/>
<feColorMatrix in="SourceAlpha" type="matrix" values="0 0 0 0 0 0 0 0 0 0 0 0 0 0 0 0 0 0 127 0" result="hardAlpha"/>
<feOffset/>
<feComposite in2="hardAlpha" operator="out"/>
<feColorMatrix type="matrix" values="0 0 0 0 0.988235 0 0 0 0 0.815686 0 0 0 0 0.0588235 0 0 0 1 0"/>
<feBlend mode="normal" in2="BackgroundImageFix" result="effect1_dropShadow_624_134"/>
<feBlend mode="normal" in="SourceGraphic" in2="effect1_dropShadow_624_134" result="shape"/>
</filter>
</defs>
</svg>