<svg width="144" height="42" viewBox="0 0 144 42" fill="none" xmlns="http://www.w3.org/2000/svg">
<mask id="path-1-outside-1_486_258" maskUnits="userSpaceOnUse" x="20.6221" y="0" width="103" height="8" fill="black">
<rect fill="white" x="20.6221" width="103" height="8"/>
<path d="M21.6221 1H22.7297V7.68391H21.6221V1Z"/>
<path d="M24.3493 6.70042V5.86016H25.4379V6.36623L25.8007 6.72907H27.8823L28.2642 6.34713V5.11538L27.8918 4.74299H25.3519L24.3684 3.76905V1.98349L25.3519 1H28.2929L29.2763 1.98349V2.8333H28.1878V2.31769L27.8154 1.95485H25.8294L25.457 2.31769V3.42531L25.8294 3.78815H28.3692L29.3527 4.77164V6.68133L28.3501 7.68391H25.3328L24.3493 6.70042Z"/>
<path d="M32.5455 1H33.5958L36.0116 7.68391H34.8849L34.312 6.09887H31.8198L31.2469 7.68391H30.1202L32.5455 1ZM34.0542 5.17267L33.0707 2.34633H33.0516L32.0872 5.17267H34.0542Z"/>
<path d="M36.9194 6.60494V2.07898L37.9983 1H41.1302L42.1901 2.05988V2.93834H41.0825V2.45136L40.5764 1.95485H38.5712L38.027 2.48956V6.19436L38.5712 6.72907H40.5764L41.0825 6.23255V5.74558H42.1901V6.62404L41.1302 7.68391H37.9983L36.9194 6.60494Z"/>
<path d="M45.3848 1H46.4351L48.8509 7.68391H47.7242L47.1513 6.09887H44.6591L44.0862 7.68391H42.9595L45.3848 1ZM46.8935 5.17267L45.91 2.34633H45.8909L44.9265 5.17267H46.8935Z"/>
<path d="M55.8252 7.68391L54.6698 6.08932L53.524 7.68391H52.3114L54.0778 5.26816L52.3591 2.92879H53.5718L54.6698 4.45654L55.7775 2.92879H56.9901L55.2809 5.28725L57.0379 7.68391H55.8252Z"/>
<path d="M60.9274 6.70042V5.86016H62.0159V6.36623L62.3787 6.72907H64.4603L64.8422 6.34713V5.11538L64.4698 4.74299H61.93L60.9465 3.76905V1.98349L61.93 1H64.8709L65.8544 1.98349V2.8333H64.7658V2.31769L64.3935 1.95485H62.4074L62.035 2.31769V3.42531L62.4074 3.78815H64.9473L65.9308 4.77164V6.68133L64.9282 7.68391H61.9109L60.9274 6.70042Z"/>
<path d="M67.5053 1H68.613V7.68391H67.5053V1Z"/>
<path d="M70.2804 6.60494V2.07898L71.3593 1H74.5485L75.6084 2.05988V2.93834H74.5008V2.45136L73.9947 1.95485H71.9323L71.388 2.48956V6.19436L71.9323 6.72907H73.9947L74.5294 6.20391V4.99125H73.0685V4.03641H75.6084V6.60494L74.5294 7.68391H71.3593L70.2804 6.60494Z"/>
<path d="M78.895 1H79.9453L82.3611 7.68391H81.2344L80.6615 6.09887H78.1693L77.5964 7.68391H76.4697L78.895 1ZM80.4037 5.17267L79.4202 2.34633H79.4011L78.4367 5.17267H80.4037Z"/>
<path d="M83.552 1H84.6596V7.68391H83.552V1Z"/>
<path d="M92.2537 7.68391L91.0983 6.08932L89.9525 7.68391H88.7398L90.5063 5.26816L88.7876 2.92879H90.0002L91.0983 4.45654L92.2059 2.92879H93.4186L91.7094 5.28725L93.4663 7.68391H92.2537Z"/>
<path d="M97.499 1H98.5112L101.662 5.86016H101.681V1H102.741V7.68391H101.729L98.578 2.8333H98.5589V7.68391H97.499V1Z"/>
<path d="M104.321 6.70042V5.86016H105.409V6.36623L105.772 6.72907H107.854L108.236 6.34713V5.11538L107.863 4.74299H105.324L104.34 3.76905V1.98349L105.324 1H108.264L109.248 1.98349V2.8333H108.159V2.31769L107.787 1.95485H105.801L105.429 2.31769V3.42531L105.801 3.78815H108.341L109.324 4.77164V6.68133L108.322 7.68391H105.304L104.321 6.70042Z"/>
<path d="M110.851 1H114.986L116.103 2.11717V6.56675L114.986 7.68391H110.851V1ZM114.451 6.72907L114.995 6.19436V2.48956L114.451 1.95485H111.959V6.72907H114.451Z"/>
<path d="M117.628 6.60494V2.07898L118.707 1H121.838L122.898 2.05988V2.93834H121.791V2.45136L121.285 1.95485H119.279L118.735 2.48956V6.19436L119.279 6.72907H121.285L121.791 6.23255V5.74558H122.898V6.62404L121.838 7.68391H118.707L117.628 6.60494Z"/>
</mask>
<path d="M21.6221 1H22.7297V7.68391H21.6221V1Z" fill="white"/>
<path d="M24.3493 6.70042V5.86016H25.4379V6.36623L25.8007 6.72907H27.8823L28.2642 6.34713V5.11538L27.8918 4.74299H25.3519L24.3684 3.76905V1.98349L25.3519 1H28.2929L29.2763 1.98349V2.8333H28.1878V2.31769L27.8154 1.95485H25.8294L25.457 2.31769V3.42531L25.8294 3.78815H28.3692L29.3527 4.77164V6.68133L28.3501 7.68391H25.3328L24.3493 6.70042Z" fill="white"/>
<path d="M32.5455 1H33.5958L36.0116 7.68391H34.8849L34.312 6.09887H31.8198L31.2469 7.68391H30.1202L32.5455 1ZM34.0542 5.17267L33.0707 2.34633H33.0516L32.0872 5.17267H34.0542Z" fill="white"/>
<path d="M36.9194 6.60494V2.07898L37.9983 1H41.1302L42.1901 2.05988V2.93834H41.0825V2.45136L40.5764 1.95485H38.5712L38.027 2.48956V6.19436L38.5712 6.72907H40.5764L41.0825 6.23255V5.74558H42.1901V6.62404L41.1302 7.68391H37.9983L36.9194 6.60494Z" fill="white"/>
<path d="M45.3848 1H46.4351L48.8509 7.68391H47.7242L47.1513 6.09887H44.6591L44.0862 7.68391H42.9595L45.3848 1ZM46.8935 5.17267L45.91 2.34633H45.8909L44.9265 5.17267H46.8935Z" fill="white"/>
<path d="M55.8252 7.68391L54.6698 6.08932L53.524 7.68391H52.3114L54.0778 5.26816L52.3591 2.92879H53.5718L54.6698 4.45654L55.7775 2.92879H56.9901L55.2809 5.28725L57.0379 7.68391H55.8252Z" fill="white"/>
<path d="M60.9274 6.70042V5.86016H62.0159V6.36623L62.3787 6.72907H64.4603L64.8422 6.34713V5.11538L64.4698 4.74299H61.93L60.9465 3.76905V1.98349L61.93 1H64.8709L65.8544 1.98349V2.8333H64.7658V2.31769L64.3935 1.95485H62.4074L62.035 2.31769V3.42531L62.4074 3.78815H64.9473L65.9308 4.77164V6.68133L64.9282 7.68391H61.9109L60.9274 6.70042Z" fill="white"/>
<path d="M67.5053 1H68.613V7.68391H67.5053V1Z" fill="white"/>
<path d="M70.2804 6.60494V2.07898L71.3593 1H74.5485L75.6084 2.05988V2.93834H74.5008V2.45136L73.9947 1.95485H71.9323L71.388 2.48956V6.19436L71.9323 6.72907H73.9947L74.5294 6.20391V4.99125H73.0685V4.03641H75.6084V6.60494L74.5294 7.68391H71.3593L70.2804 6.60494Z" fill="white"/>
<path d="M78.895 1H79.9453L82.3611 7.68391H81.2344L80.6615 6.09887H78.1693L77.5964 7.68391H76.4697L78.895 1ZM80.4037 5.17267L79.4202 2.34633H79.4011L78.4367 5.17267H80.4037Z" fill="white"/>
<path d="M83.552 1H84.6596V7.68391H83.552V1Z" fill="white"/>
<path d="M92.2537 7.68391L91.0983 6.08932L89.9525 7.68391H88.7398L90.5063 5.26816L88.7876 2.92879H90.0002L91.0983 4.45654L92.2059 2.92879H93.4186L91.7094 5.28725L93.4663 7.68391H92.2537Z" fill="white"/>
<path d="M97.499 1H98.5112L101.662 5.86016H101.681V1H102.741V7.68391H101.729L98.578 2.8333H98.5589V7.68391H97.499V1Z" fill="white"/>
<path d="M104.321 6.70042V5.86016H105.409V6.36623L105.772 6.72907H107.854L108.236 6.34713V5.11538L107.863 4.74299H105.324L104.34 3.76905V1.98349L105.324 1H108.264L109.248 1.98349V2.8333H108.159V2.31769L107.787 1.95485H105.801L105.429 2.31769V3.42531L105.801 3.78815H108.341L109.324 4.77164V6.68133L108.322 7.68391H105.304L104.321 6.70042Z" fill="white"/>
<path d="M110.851 1H114.986L116.103 2.11717V6.56675L114.986 7.68391H110.851V1ZM114.451 6.72907L114.995 6.19436V2.48956L114.451 1.95485H111.959V6.72907H114.451Z" fill="white"/>
<path d="M117.628 6.60494V2.07898L118.707 1H121.838L122.898 2.05988V2.93834H121.791V2.45136L121.285 1.95485H119.279L118.735 2.48956V6.19436L119.279 6.72907H121.285L121.791 6.23255V5.74558H122.898V6.62404L121.838 7.68391H118.707L117.628 6.60494Z" fill="white"/>
<path d="M21.6221 1H22.7297V7.68391H21.6221V1Z" stroke="#FBD005" stroke-width="0.555556" mask="url(#path-1-outside-1_486_258)"/>
<path d="M24.3493 6.70042V5.86016H25.4379V6.36623L25.8007 6.72907H27.8823L28.2642 6.34713V5.11538L27.8918 4.74299H25.3519L24.3684 3.76905V1.98349L25.3519 1H28.2929L29.2763 1.98349V2.8333H28.1878V2.31769L27.8154 1.95485H25.8294L25.457 2.31769V3.42531L25.8294 3.78815H28.3692L29.3527 4.77164V6.68133L28.3501 7.68391H25.3328L24.3493 6.70042Z" stroke="#FBD005" stroke-width="0.555556" mask="url(#path-1-outside-1_486_258)"/>
<path d="M32.5455 1H33.5958L36.0116 7.68391H34.8849L34.312 6.09887H31.8198L31.2469 7.68391H30.1202L32.5455 1ZM34.0542 5.17267L33.0707 2.34633H33.0516L32.0872 5.17267H34.0542Z" stroke="#FBD005" stroke-width="0.555556" mask="url(#path-1-outside-1_486_258)"/>
<path d="M36.9194 6.60494V2.07898L37.9983 1H41.1302L42.1901 2.05988V2.93834H41.0825V2.45136L40.5764 1.95485H38.5712L38.027 2.48956V6.19436L38.5712 6.72907H40.5764L41.0825 6.23255V5.74558H42.1901V6.62404L41.1302 7.68391H37.9983L36.9194 6.60494Z" stroke="#FBD005" stroke-width="0.555556" mask="url(#path-1-outside-1_486_258)"/>
<path d="M45.3848 1H46.4351L48.8509 7.68391H47.7242L47.1513 6.09887H44.6591L44.0862 7.68391H42.9595L45.3848 1ZM46.8935 5.17267L45.91 2.34633H45.8909L44.9265 5.17267H46.8935Z" stroke="#FBD005" stroke-width="0.555556" mask="url(#path-1-outside-1_486_258)"/>
<path d="M55.8252 7.68391L54.6698 6.08932L53.524 7.68391H52.3114L54.0778 5.26816L52.3591 2.92879H53.5718L54.6698 4.45654L55.7775 2.92879H56.9901L55.2809 5.28725L57.0379 7.68391H55.8252Z" stroke="#FBD005" stroke-width="0.555556" mask="url(#path-1-outside-1_486_258)"/>
<path d="M60.9274 6.70042V5.86016H62.0159V6.36623L62.3787 6.72907H64.4603L64.8422 6.34713V5.11538L64.4698 4.74299H61.93L60.9465 3.76905V1.98349L61.93 1H64.8709L65.8544 1.98349V2.8333H64.7658V2.31769L64.3935 1.95485H62.4074L62.035 2.31769V3.42531L62.4074 3.78815H64.9473L65.9308 4.77164V6.68133L64.9282 7.68391H61.9109L60.9274 6.70042Z" stroke="#FBD005" stroke-width="0.555556" mask="url(#path-1-outside-1_486_258)"/>
<path d="M67.5053 1H68.613V7.68391H67.5053V1Z" stroke="#FBD005" stroke-width="0.555556" mask="url(#path-1-outside-1_486_258)"/>
<path d="M70.2804 6.60494V2.07898L71.3593 1H74.5485L75.6084 2.05988V2.93834H74.5008V2.45136L73.9947 1.95485H71.9323L71.388 2.48956V6.19436L71.9323 6.72907H73.9947L74.5294 6.20391V4.99125H73.0685V4.03641H75.6084V6.60494L74.5294 7.68391H71.3593L70.2804 6.60494Z" stroke="#FBD005" stroke-width="0.555556" mask="url(#path-1-outside-1_486_258)"/>
<path d="M78.895 1H79.9453L82.3611 7.68391H81.2344L80.6615 6.09887H78.1693L77.5964 7.68391H76.4697L78.895 1ZM80.4037 5.17267L79.4202 2.34633H79.4011L78.4367 5.17267H80.4037Z" stroke="#FBD005" stroke-width="0.555556" mask="url(#path-1-outside-1_486_258)"/>
<path d="M83.552 1H84.6596V7.68391H83.552V1Z" stroke="#FBD005" stroke-width="0.555556" mask="url(#path-1-outside-1_486_258)"/>
<path d="M92.2537 7.68391L91.0983 6.08932L89.9525 7.68391H88.7398L90.5063 5.26816L88.7876 2.92879H90.0002L91.0983 4.45654L92.2059 2.92879H93.4186L91.7094 5.28725L93.4663 7.68391H92.2537Z" stroke="#FBD005" stroke-width="0.555556" mask="url(#path-1-outside-1_486_258)"/>
<path d="M97.499 1H98.5112L101.662 5.86016H101.681V1H102.741V7.68391H101.729L98.578 2.8333H98.5589V7.68391H97.499V1Z" stroke="#FBD005" stroke-width="0.555556" mask="url(#path-1-outside-1_486_258)"/>
<path d="M104.321 6.70042V5.86016H105.409V6.36623L105.772 6.72907H107.854L108.236 6.34713V5.11538L107.863 4.74299H105.324L104.34 3.76905V1.98349L105.324 1H108.264L109.248 1.98349V2.8333H108.159V2.31769L107.787 1.95485H105.801L105.429 2.31769V3.42531L105.801 3.78815H108.341L109.324 4.77164V6.68133L108.322 7.68391H105.304L104.321 6.70042Z" stroke="#FBD005" stroke-width="0.555556" mask="url(#path-1-outside-1_486_258)"/>
<path d="M110.851 1H114.986L116.103 2.11717V6.56675L114.986 7.68391H110.851V1ZM114.451 6.72907L114.995 6.19436V2.48956L114.451 1.95485H111.959V6.72907H114.451Z" stroke="#FBD005" stroke-width="0.555556" mask="url(#path-1-outside-1_486_258)"/>
<path d="M117.628 6.60494V2.07898L118.707 1H121.838L122.898 2.05988V2.93834H121.791V2.45136L121.285 1.95485H119.279L118.735 2.48956V6.19436L119.279 6.72907H121.285L121.791 6.23255V5.74558H122.898V6.62404L121.838 7.68391H118.707L117.628 6.60494Z" stroke="#FBD005" stroke-width="0.555556" mask="url(#path-1-outside-1_486_258)"/>
<g filter="url(#filter0_d_486_258)">
<path d="M22.5615 17.7254V12.6838H4.9656L2 15.6494V21.8772L5.95413 25.2382H16.9269V27.5118H2V32.3556H19.3982L21.7707 29.4889V23.7554L18.4097 20.5921H7.33809V17.7254H22.5615Z" fill="white"/>
<path d="M29.1847 12.6838H24.3409V21.4818L29.1847 26.3256H36.5987V29.4889L30.2721 35.8155H26.2191V40.0415H32.7187L40.9976 31.7625V22.9152L42.7276 21.1852V12.6838H38.1803V21.1852H29.1847V12.6838Z" fill="white"/>
<path d="M44.5069 12.6838V32.3556H49.4496V17.7254H57.951V32.3556H63.3385V16.4897L59.5326 12.6838H44.5069Z" fill="white"/>
<path d="M76.832 17.7254H66.057V12.7827H78.8091L81.6758 15.6494V20.9875L79.7482 22.9152L81.6758 24.8428V29.4889L78.8091 32.3556H65.2661V28.105H76.832V24.8428H69.5168V20.5921H76.832V17.7254Z" fill="white"/>
<path d="M103.127 28.396V15.6494L105.994 12.7827H121.316V17.7254H108.07V27.3141H116.472V25.5348H111.727V20.5921H121.316V32.3556H105.994L103.127 28.396Z" fill="white"/>
<path d="M123.194 20.9875V12.7827H128.73V20.9875H138.22V12.6838H142.52V22.9152L140.592 24.8428V31.8614L131.992 40.4616H125.27V35.8649H129.274L135.65 29.4889V25.5348H127.741L123.194 20.9875Z" fill="white"/>
<path fill-rule="evenodd" clip-rule="evenodd" d="M83.1586 32.3556H88.0024V26.3256H92.6485L97.8877 32.3556H103.127L98.5797 25.5348L101.743 22.3715V15.6494L98.8763 12.7827H83.1586V32.3556ZM88.0024 20.9875V17.7254H96.2876V20.9875H88.0024Z" fill="white"/>
<path d="M66.057 12.6838V12.7827M66.057 12.7827V17.7254H76.832V20.5921H69.5168V24.8428H76.832V28.105H65.2661V32.3556H78.8091L81.6758 29.4889V24.8428L79.7482 22.9152L81.6758 20.9875V15.6494L78.8091 12.7827H66.057ZM83.1586 12.6838V12.7827M83.1586 12.7827V32.3556H88.0024V26.3256H92.6485L97.8877 32.3556H103.127L98.5797 25.5348L101.743 22.3715V15.6494L98.8763 12.7827H83.1586ZM22.5615 12.6838V17.7254H7.33809V20.5921H18.4097L21.7707 23.7554V29.4889L19.3982 32.3556H2V27.5118H16.9269V25.2382H5.95413L2 21.8772V15.6494L4.9656 12.6838H22.5615ZM24.3409 12.6838H29.1847V21.1852H38.1803V12.6838H42.7276V21.1852L40.9976 22.9152V31.7625L32.7187 40.0415H26.2191V35.8155H30.2721L36.5987 29.4889V26.3256H29.1847L24.3409 21.4818V12.6838ZM44.5069 32.3556V12.6838H59.5326L63.3385 16.4897V32.3556H57.951V17.7254H49.4496V32.3556H44.5069ZM103.127 15.6494V28.396L105.994 32.3556H121.316V20.5921H111.727V25.5348H116.472V27.3141H108.07V17.7254H121.316V12.7827H105.994L103.127 15.6494ZM123.194 12.7827V20.9875L127.741 25.5348H135.65V29.4889L129.274 35.8649H125.27V40.4616H131.992L140.592 31.8614V24.8428L142.52 22.9152V12.6838H138.22V20.9875H128.73V12.7827H123.194ZM88.0024 17.7254V20.9875H96.2876V17.7254H88.0024Z" stroke="black" stroke-width="2.22222"/>
<path d="M66.057 12.6838V12.7827M66.057 12.7827V17.7254H76.832V20.5921H69.5168V24.8428H76.832V28.105H65.2661V32.3556H78.8091L81.6758 29.4889V24.8428L79.7482 22.9152L81.6758 20.9875V15.6494L78.8091 12.7827H66.057ZM83.1586 12.6838V12.7827M83.1586 12.7827V32.3556H88.0024V26.3256H92.6485L97.8877 32.3556H103.127L98.5797 25.5348L101.743 22.3715V15.6494L98.8763 12.7827H83.1586ZM22.5615 12.6838V17.7254H7.33809V20.5921H18.4097L21.7707 23.7554V29.4889L19.3982 32.3556H2V27.5118H16.9269V25.2382H5.95413L2 21.8772V15.6494L4.9656 12.6838H22.5615ZM24.3409 12.6838H29.1847V21.1852H38.1803V12.6838H42.7276V21.1852L40.9976 22.9152V31.7625L32.7187 40.0415H26.2191V35.8155H30.2721L36.5987 29.4889V26.3256H29.1847L24.3409 21.4818V12.6838ZM44.5069 32.3556V12.6838H59.5326L63.3385 16.4897V32.3556H57.951V17.7254H49.4496V32.3556H44.5069ZM103.127 15.6494V28.396L105.994 32.3556H121.316V20.5921H111.727V25.5348H116.472V27.3141H108.07V17.7254H121.316V12.7827H105.994L103.127 15.6494ZM123.194 12.7827V20.9875L127.741 25.5348H135.65V29.4889L129.274 35.8649H125.27V40.4616H131.992L140.592 31.8614V24.8428L142.52 22.9152V12.6838H138.22V20.9875H128.73V12.7827H123.194ZM88.0024 17.7254V20.9875H96.2876V17.7254H88.0024Z" stroke="#FBD005" stroke-width="2.22222"/>
</g>
<g filter="url(#filter1_d_486_258)">
<path d="M22.5615 17.7254V12.6838H4.9656L2 15.6494V21.8772L5.95413 25.2382H16.9269V27.5118H2V32.3556H19.3982L21.7707 29.4889V23.7554L18.4097 20.5921H7.33809V17.7254H22.5615Z" fill="white"/>
<path d="M29.1847 12.6838H24.3409V21.4818L29.1847 26.3256H36.5987V29.4889L30.2721 35.8155H26.2191V40.0415H32.7187L40.9976 31.7625V22.9152L42.7276 21.1852V12.6838H38.1803V21.1852H29.1847V12.6838Z" fill="white"/>
<path d="M44.5069 12.6838V32.3556H49.4496V17.7254H57.951V32.3556H63.3385V16.4897L59.5326 12.6838H44.5069Z" fill="white"/>
<path d="M76.832 17.7254H66.057V12.7827H78.8091L81.6758 15.6494V20.9875L79.7482 22.9152L81.6758 24.8428V29.4889L78.8091 32.3556H65.2661V28.105H76.832V24.8428H69.5168V20.5921H76.832V17.7254Z" fill="white"/>
<path d="M103.127 28.396V15.6494L105.994 12.7827H121.316V17.7254H108.07V27.3141H116.472V25.5348H111.727V20.5921H121.316V32.3556H105.994L103.127 28.396Z" fill="white"/>
<path d="M123.194 20.9875V12.7827H128.73V20.9875H138.22V12.6838H142.52V22.9152L140.592 24.8428V31.8614L131.992 40.4616H125.27V35.8649H129.274L135.65 29.4889V25.5348H127.741L123.194 20.9875Z" fill="white"/>
<path fill-rule="evenodd" clip-rule="evenodd" d="M83.1586 32.3556H88.0024V26.3256H92.6485L97.8877 32.3556H103.127L98.5797 25.5348L101.743 22.3715V15.6494L98.8763 12.7827H83.1586V32.3556ZM88.0024 20.9875V17.7254H96.2876V20.9875H88.0024Z" fill="white"/>
<path d="M66.057 12.6838V12.7827M66.057 12.7827V17.7254H76.832V20.5921H69.5168V24.8428H76.832V28.105H65.2661V32.3556H78.8091L81.6758 29.4889V24.8428L79.7482 22.9152L81.6758 20.9875V15.6494L78.8091 12.7827H66.057ZM83.1586 12.6838V12.7827M83.1586 12.7827V32.3556H88.0024V26.3256H92.6485L97.8877 32.3556H103.127L98.5797 25.5348L101.743 22.3715V15.6494L98.8763 12.7827H83.1586ZM22.5615 12.6838V17.7254H7.33809V20.5921H18.4097L21.7707 23.7554V29.4889L19.3982 32.3556H2V27.5118H16.9269V25.2382H5.95413L2 21.8772V15.6494L4.9656 12.6838H22.5615ZM24.3409 12.6838H29.1847V21.1852H38.1803V12.6838H42.7276V21.1852L40.9976 22.9152V31.7625L32.7187 40.0415H26.2191V35.8155H30.2721L36.5987 29.4889V26.3256H29.1847L24.3409 21.4818V12.6838ZM44.5069 32.3556V12.6838H59.5326L63.3385 16.4897V32.3556H57.951V17.7254H49.4496V32.3556H44.5069ZM103.127 15.6494V28.396L105.994 32.3556H121.316V20.5921H111.727V25.5348H116.472V27.3141H108.07V17.7254H121.316V12.7827H105.994L103.127 15.6494ZM123.194 12.7827V20.9875L127.741 25.5348H135.65V29.4889L129.274 35.8649H125.27V40.4616H131.992L140.592 31.8614V24.8428L142.52 22.9152V12.6838H138.22V20.9875H128.73V12.7827H123.194ZM88.0024 17.7254V20.9875H96.2876V17.7254H88.0024Z" stroke="black" stroke-width="1.11111"/>
</g>
<path d="M107.892 40.4618L101.521 34.0898H121.081V40.4618H107.892Z" fill="#FBD007" stroke="black" stroke-width="0.555556"/>
<defs>
<filter id="filter0_d_486_258" x="0.888672" y="11.5728" width="142.743" height="30" filterUnits="userSpaceOnUse" color-interpolation-filters="sRGB">
<feFlood flood-opacity="0" result="BackgroundImageFix"/>
<feColorMatrix in="SourceAlpha" type="matrix" values="0 0 0 0 0 0 0 0 0 0 0 0 0 0 0 0 0 0 127 0" result="hardAlpha"/>
<feOffset/>
<feComposite in2="hardAlpha" operator="out"/>
<feColorMatrix type="matrix" values="0 0 0 0 0.988235 0 0 0 0 0.815686 0 0 0 0 0.0588235 0 0 0 1 0"/>
<feBlend mode="normal" in2="BackgroundImageFix" result="effect1_dropShadow_486_258"/>
<feBlend mode="normal" in="SourceGraphic" in2="effect1_dropShadow_486_258" result="shape"/>
</filter>
<filter id="filter1_d_486_258" x="1.44434" y="12.1282" width="141.631" height="28.8889" filterUnits="userSpaceOnUse" color-interpolation-filters="sRGB">
<feFlood flood-opacity="0" result="BackgroundImageFix"/>
<feColorMatrix in="SourceAlpha" type="matrix" values="0 0 0 0 0 0 0 0 0 0 0 0 0 0 0 0 0 0 127 0" result="hardAlpha"/>
<feOffset/>
<feComposite in2="hardAlpha" operator="out"/>
<feColorMatrix type="matrix" values="0 0 0 0 0.988235 0 0 0 0 0.815686 0 0 0 0 0.0588235 0 0 0 1 0"/>
<feBlend mode="normal" in2="BackgroundImageFix" result="effect1_dropShadow_486_258"/>
<feBlend mode="normal" in="SourceGraphic" in2="effect1_dropShadow_486_258" result="shape"/>
</filter>
</defs>
</svg>
